<svg id="Layer_1" data-name="Layer 1" xmlns="http://www.w3.org/2000/svg" viewBox="0 0 1484.7 828.78"><defs><style>.cls-1{fill:#585859;}.cls-2{fill:#fff;}.cls-3{fill:#00a2af;}</style></defs><path class="cls-1" d="M79.29,126.46" transform="translate(-31.48 -97.82)"/><path class="cls-2" d="M549.91,576.08" transform="translate(-31.48 -97.82)"/><path class="cls-1" d="M31.48,97.82l483.41,827.7,493.28-827.7Zm258.21,378L83.33,122.42l286.51,1.82-25.63,50.6,117.93-1.27L430.42,230.4l-125.31,1.95-30.58,55.07-33.65-57.56,27.62-49.24-80,.86L324,422.35S291.52,475.83,289.69,475.85Zm19.07,36.9h105l-55,90.17ZM518.17,871.61l-33.4-53.14L541,724,455.75,599.22l-48.18,78.43L405.7,681l-37.65-58.33,69.17-109.93h63l-14.82,24.7,85.23,126.61,91.06-149.69,65.2-1.62ZM305.67,486.19,519.36,128.6,583,237.91l-30.88,52.5-31.49-50L405.72,426.28H622.5l-37.67-71,33.35-56.2,108.7,187.13ZM858.38,288.51l-148.93,2.25L783.64,418.2l-37.82,59.91-143.13-252H894.81ZM581,184.16l-33.53-57.4,407.32,2.44-32.41,55Z" transform="translate(-31.48 -97.82)"/><path class="cls-3" d="M1032.76,98.9,539.49,926.6h976.69Zm-2.28,49.9,140.63,249.64-56.65,2.86,59.63,101.75-65.07.67L1045.13,395.9l-63,.79,33.27-57.79,56.46-.46-40.48-69.06L889.55,506.57S827,505,826.09,503.37Zm212.18,389.91-32.41,55H868.87l-33.53-57.4ZM594.73,893.07l213.7-357.6L872,644.79l-30.88,52.5-31.5-50L694.79,833.16H911.57l-37.68-71,33.35-56.21,108.7,187.14ZM890.56,635.64h292.13L1146.25,698l-148.92,2.26,74.19,127.44-37.82,59.91Zm387.81,260.8,14.78-24.85-85.23-124.75-48.18,78.43-38.55,67.8h-64.85l201.93-353.18,32.43,56.62-53.14,88.57,85.23,126.61L1372,730.77l31.57,59.35-61.84,106.32ZM1412,806.27l50,90.17h-105Z" transform="translate(-31.48 -97.82)"/></svg>